<svg width="94" height="94" viewBox="0 0 94 94" fill="none" xmlns="http://www.w3.org/2000/svg">
<path d="M78.9613 15.0388H14.0969V79.9032H78.9613V15.0388Z" fill="url(#paint0_linear)"/>
<path d="M94 14.0969C94 6.31062 87.6894 0 79.9031 0H14.0969C6.31062 0 0 6.31062 0 14.0969V79.9031C0 87.6894 6.31062 94 14.0969 94H79.9031C87.6894 94 94 87.6894 94 79.9031V14.0969ZM46.4977 79.3223C28.7432 79.3223 14.3323 64.9115 14.3323 47.157C14.3323 29.3868 28.7432 14.9917 46.4977 14.9917C64.2679 14.9917 78.663 29.4025 78.663 47.157C78.663 64.9115 64.2679 79.3223 46.4977 79.3223Z" fill="url(#paint1_linear)"/>
<path d="M62.855 40.9876C62.855 40.9876 62.5411 38.6486 61.5678 37.6126C60.3277 36.2625 58.9462 36.2625 58.3183 36.184C53.7659 35.8387 46.9372 35.8387 46.9372 35.8387H46.9215C46.9215 35.8387 40.0929 35.8387 35.5404 36.184C34.8968 36.2625 33.5154 36.2625 32.2752 37.6126C31.3019 38.6486 30.988 40.9876 30.988 40.9876C30.988 40.9876 30.6583 43.7348 30.6583 46.482V46.8116V49.0565C30.6583 51.8036 30.988 54.5508 30.988 54.5508C30.988 54.5508 31.3019 56.8898 32.2752 57.9102C33.5154 59.2602 35.148 59.2131 35.8701 59.3544C38.476 59.6212 46.9215 59.6997 46.9215 59.6997C46.9215 59.6997 53.7502 59.684 58.3026 59.3387C58.9305 59.2602 60.3277 59.2602 61.5521 57.8945C62.5254 56.8584 62.8394 54.5351 62.8394 54.5351C62.8394 54.5351 63.169 51.7879 63.169 49.0408V46.9372V46.4663C63.1847 43.7348 62.855 40.9876 62.855 40.9876ZM52.3531 47.4239L43.5621 52.1647V44.8651V42.6516L47.518 44.8023L52.3531 47.4239Z" fill="white"/>
<defs>
<linearGradient id="paint0_linear" x1="46.525" y1="79.9057" x2="46.525" y2="15.0388" gradientUnits="userSpaceOnUse">
<stop stop-color="#FF3F45"/>
<stop offset="1" stop-color="#CC0005"/>
</linearGradient>
<linearGradient id="paint1_linear" x1="46.995" y1="94.0071" x2="46.995" y2="-0.00285775" gradientUnits="userSpaceOnUse">
<stop stop-color="#E6E6E6"/>
<stop offset="1" stop-color="white"/>
</linearGradient>
</defs>
</svg>
