<svg width="95" height="95" viewBox="0 0 95 95" fill="none" xmlns="http://www.w3.org/2000/svg">
<g filter="url(#filter0_d)">
<path fill-rule="evenodd" clip-rule="evenodd" d="M47.3183 57.1691C41.6086 57.1691 37.0054 52.619 36.9965 46.9536C36.9876 41.3766 41.6263 36.8088 47.3006 36.8088C52.9926 36.7999 57.6136 41.3589 57.6224 46.9801C57.6224 52.5925 53.0104 57.1603 47.3183 57.1691ZM47.3183 53.8938C51.2045 53.8938 54.3559 50.7866 54.3471 46.9624C54.3382 43.1736 51.1868 40.0753 47.3183 40.0753C43.4321 40.0753 40.263 43.1648 40.263 46.9801C40.2719 50.8043 43.4321 53.9026 47.3183 53.8938Z" fill="#FBBC09"/>
<path d="M60.9863 35.9767C60.9863 34.7285 60.0126 33.7105 58.8175 33.7105C57.6225 33.7105 56.6487 34.7374 56.6576 35.9856C56.6576 37.2072 57.6225 38.2163 58.7998 38.2252C59.9949 38.234 60.9775 37.2249 60.9863 35.9767Z" fill="#FBBC09"/>
<path fill-rule="evenodd" clip-rule="evenodd" d="M69.219 47.7856C69.219 48.7229 69.2132 49.661 69.2075 50.5994C69.1944 52.7452 69.1813 54.8931 69.2367 57.0363C69.3695 62.4893 65.9436 66.703 61.5794 68.5797C59.8267 69.3322 57.9854 69.7305 56.0821 69.7305C54.4942 69.7329 52.9057 69.7403 51.3169 69.7477H51.3156C46.9438 69.768 42.5697 69.7884 38.2004 69.704C33.7123 69.6155 30.0209 67.7388 27.3741 64.0385C25.9842 62.091 25.3203 59.8779 25.3203 57.4789V38.4464C25.3203 33.2678 27.8432 29.6472 32.3225 27.2925C34.27 26.2745 36.3857 25.8407 38.5899 25.8319C40.2412 25.8319 41.8932 25.829 43.5455 25.8261C47.6774 25.8189 51.8112 25.8116 55.9405 25.8496C60.4286 25.885 64.1732 27.6023 66.9351 31.2141C68.4754 33.2324 69.219 35.5517 69.219 38.1012V47.7856ZM28.5868 47.7856V57.5232C28.5868 58.975 28.9232 60.3382 29.6757 61.5687C31.6497 64.7998 34.633 66.3755 38.3332 66.4375C43.0848 66.5083 47.8421 66.4885 52.6005 66.4686C53.7905 66.4637 54.9806 66.4587 56.1707 66.4552C57.6313 66.4552 59.0477 66.1542 60.3667 65.5257C63.9607 63.8083 65.9702 61.073 65.9525 56.9655C65.9277 52.5658 65.9333 48.1661 65.9388 43.7664C65.9412 41.8809 65.9436 39.9955 65.9436 38.11C65.9436 36.3307 65.439 34.7019 64.3856 33.2678C62.3496 30.5148 59.5345 29.1603 56.1707 29.1249C51.6351 29.0708 47.0996 29.0839 42.5641 29.0971C41.1686 29.1011 39.773 29.1052 38.3775 29.1072C37.1116 29.1072 35.89 29.364 34.7038 29.8066C31.4461 31.0193 28.4186 34.0911 28.5603 38.6146C28.6346 40.7589 28.6179 42.8988 28.6012 45.0375C28.594 45.9537 28.5868 46.8697 28.5868 47.7856Z" fill="#FBBC09"/>
</g>
<defs>
<filter id="filter0_d" x="-15.5" y="-15" width="125" height="125" filterUnits="userSpaceOnUse" color-interpolation-filters="sRGB">
<feFlood flood-opacity="0" result="BackgroundImageFix"/>
<feColorMatrix in="SourceAlpha" type="matrix" values="0 0 0 0 0 0 0 0 0 0 0 0 0 0 0 0 0 0 127 0"/>
<feOffset/>
<feGaussianBlur stdDeviation="12.5"/>
<feColorMatrix type="matrix" values="0 0 0 0 1 0 0 0 0 0.94902 0 0 0 0 0 0 0 0 0.55 0"/>
<feBlend mode="normal" in2="BackgroundImageFix" result="effect1_dropShadow"/>
<feBlend mode="normal" in="SourceGraphic" in2="effect1_dropShadow" result="shape"/>
</filter>
</defs>
</svg>
