<svg width="128" height="87" viewBox="0 0 128 87" fill="none" xmlns="http://www.w3.org/2000/svg">
<g filter="url(#filter0_d)">
<path d="M91.4033 28.034L91.3831 28.0919L91.3702 28.1519C91.2002 28.9412 90.6236 30.2299 89.7728 31.8051C88.9395 33.3478 87.8981 35.0674 86.8759 36.682C85.8551 38.2944 84.8602 39.7913 84.1228 40.887C83.8405 41.3066 83.5966 41.6662 83.4028 41.952C83.3434 42.0395 83.2888 42.1202 83.2391 42.1935C83.1342 42.3483 83.0497 42.4735 82.992 42.5607C82.9641 42.6028 82.9372 42.6439 82.9163 42.6775C82.9079 42.6909 82.8894 42.7207 82.8711 42.7546L82.8705 42.7557C82.8694 42.7576 82.8678 42.7606 82.8657 42.7645C82.8526 42.7864 82.8392 42.8086 82.8257 42.8309C82.5333 43.315 82.1758 43.9067 82.1194 44.5618C82.0506 45.3589 82.4107 46.045 82.9404 46.7348C83.3314 47.2927 84.1235 48.064 84.8974 48.8177L84.9312 48.8506L84.9941 48.9118C85.8206 49.7167 86.7041 50.5771 87.4082 51.3896L87.4096 51.3912C88.7748 52.9596 89.9726 54.3725 90.8992 55.6173C91.8297 56.8675 92.422 57.865 92.6642 58.6214C92.8446 59.3393 92.6993 59.6278 92.6055 59.7373C92.4885 59.8737 92.161 60.0781 91.3599 60.0781H84.9098C84.0802 60.0781 83.5235 59.7874 82.5638 58.8143C82.1741 58.4191 81.7503 57.945 81.2307 57.3638C81.0867 57.2027 80.9353 57.0334 80.7752 56.8552C80.0477 56.0453 79.17 55.0863 78.0627 53.979L78.0544 53.9708L78.046 53.9627C74.1999 50.2915 72.2608 49.5022 70.9054 49.5022C70.2713 49.5022 69.371 49.5373 68.7861 50.2559C68.5109 50.594 68.3808 50.9946 68.3115 51.3788C68.2421 51.7635 68.2202 52.2111 68.2202 52.7104V58.5213C68.2202 59.2082 68.105 59.3833 67.8905 59.5255C67.517 59.7731 66.632 60.02 64.5715 60.02C58.1692 60.02 50.8966 56.1168 45.6948 48.5968L45.6948 48.5967L45.6878 48.5868C41.7511 43.041 39.2453 38.1679 37.7267 34.4892C36.9672 32.6493 36.4565 31.1125 36.1372 29.9439C35.8098 28.7453 35.7032 28.0035 35.7032 27.7233C35.7032 27.3274 35.774 27.2047 35.8187 27.1568C35.8573 27.1155 36.0746 26.9219 36.9113 26.9219H43.4196C44.0833 26.9219 44.3522 27.0597 44.5319 27.2272C44.7683 27.4476 45.0085 27.865 45.3236 28.7522C46.9452 33.4101 49.0981 37.7927 51.1377 41.0263C52.1558 42.6404 53.1633 43.9966 54.0816 44.9626C54.5397 45.4445 54.9984 45.8536 55.4463 46.149C55.8764 46.4325 56.3979 46.6791 56.9591 46.6791C57.2207 46.6791 57.5545 46.6536 57.8869 46.5111C58.248 46.3563 58.5349 46.0956 58.7381 45.7472C59.0914 45.1415 59.1794 44.2796 59.1794 43.2385V33.7667V33.7338L59.1773 33.701C59.0182 31.2836 58.2872 29.9116 57.5672 28.9375C57.4096 28.7243 57.2546 28.5329 57.1231 28.3704C57.1128 28.3577 57.1027 28.3452 57.0927 28.3329C56.9485 28.1546 56.8416 28.0204 56.7552 27.8953C56.594 27.6617 56.5645 27.5442 56.5645 27.4327C56.5645 27.2296 56.756 26.9219 57.1916 26.9219H67.3607C67.8361 26.9219 67.9488 27.0465 67.9952 27.1077C68.0914 27.2343 68.2202 27.5561 68.2202 28.3044V41.1466C68.2202 41.9511 68.3943 42.6231 68.7265 43.1275C69.0501 43.619 69.5758 44.0061 70.2081 44.0061C70.8695 44.0061 71.439 43.7802 72.0151 43.393C72.5615 43.026 73.1707 42.4744 73.9229 41.7512L73.9534 41.7218L73.9813 41.69C76.3517 38.9896 78.37 35.6132 79.7862 32.9422C80.4974 31.6009 81.063 30.4255 81.4513 29.5842C81.6456 29.1634 81.7957 28.8257 81.8978 28.592C81.9488 28.4752 81.9879 28.3843 82.0144 28.3221L82.0447 28.2504L82.0462 28.2469C82.239 27.8418 82.4552 27.5405 82.7246 27.3362C82.9818 27.1412 83.359 26.98 83.98 26.98H90.4302C91.2458 26.98 91.4353 27.2034 91.4612 27.2407C91.4944 27.2884 91.5891 27.4999 91.4033 28.034Z" stroke="#FBBC09" stroke-width="2"/>
</g>
<defs>
<filter id="filter0_d" x="-24.3804" y="-19" width="176.761" height="125" filterUnits="userSpaceOnUse" color-interpolation-filters="sRGB">
<feFlood flood-opacity="0" result="BackgroundImageFix"/>
<feColorMatrix in="SourceAlpha" type="matrix" values="0 0 0 0 0 0 0 0 0 0 0 0 0 0 0 0 0 0 127 0"/>
<feOffset/>
<feGaussianBlur stdDeviation="12.5"/>
<feColorMatrix type="matrix" values="0 0 0 0 1 0 0 0 0 0.94902 0 0 0 0 0 0 0 0 0.55 0"/>
<feBlend mode="normal" in2="BackgroundImageFix" result="effect1_dropShadow"/>
<feBlend mode="normal" in="SourceGraphic" in2="effect1_dropShadow" result="shape"/>
</filter>
</defs>
</svg>
