<svg width="95" height="95" viewBox="0 0 95 95" fill="none" xmlns="http://www.w3.org/2000/svg">
<g filter="url(#filter0_d)">
<path d="M66.8624 25.8203H27.7236C27.0862 25.8203 26.4749 26.0735 26.0242 26.5242C25.5735 26.9749 25.3203 27.5862 25.3203 28.2236V56.376C25.3203 57.0134 25.5735 57.6247 26.0242 58.0754C26.4749 58.5261 27.0862 58.7793 27.7236 58.7793H40.7698V67.7057H35.2767C35.0035 67.7057 34.7415 67.8142 34.5484 68.0074C34.3552 68.2005 34.2467 68.4625 34.2467 68.7357C34.2467 69.0088 34.3552 69.2708 34.5484 69.464C34.7415 69.6571 35.0035 69.7656 35.2767 69.7656H59.3093C59.5824 69.7656 59.8444 69.6571 60.0376 69.464C60.2307 69.2708 60.3392 69.0088 60.3392 68.7357C60.3392 68.4625 60.2307 68.2005 60.0376 68.0074C59.8444 67.8142 59.5824 67.7057 59.3093 67.7057H53.8161V58.7793H66.8624C67.4997 58.7793 68.111 58.5261 68.5617 58.0754C69.0124 57.6247 69.2656 57.0134 69.2656 56.376V28.2236C69.2656 27.5862 69.0124 26.9749 68.5617 26.5242C68.111 26.0735 67.4997 25.8203 66.8624 25.8203ZM27.7236 27.8802H66.8624C66.9534 27.8802 67.0407 27.9164 67.1051 27.9808C67.1695 28.0452 67.2057 28.1325 67.2057 28.2236V50.8829H27.3802V28.2236C27.3802 28.1325 27.4164 28.0452 27.4808 27.9808C27.5452 27.9164 27.6325 27.8802 27.7236 27.8802ZM51.7562 67.7057H42.8298V58.7793H51.7562V67.7057ZM66.8624 56.7194H27.7236C27.6325 56.7194 27.5452 56.6832 27.4808 56.6188C27.4164 56.5544 27.3802 56.4671 27.3802 56.376V52.9428H67.2057V56.376C67.2057 56.4671 67.1695 56.5544 67.1051 56.6188C67.0407 56.6832 66.9534 56.7194 66.8624 56.7194Z" fill="#FBBC09"/>
</g>
<defs>
<filter id="filter0_d" x="-15.5" y="-15" width="125" height="125" filterUnits="userSpaceOnUse" color-interpolation-filters="sRGB">
<feFlood flood-opacity="0" result="BackgroundImageFix"/>
<feColorMatrix in="SourceAlpha" type="matrix" values="0 0 0 0 0 0 0 0 0 0 0 0 0 0 0 0 0 0 127 0"/>
<feOffset/>
<feGaussianBlur stdDeviation="12.5"/>
<feColorMatrix type="matrix" values="0 0 0 0 1 0 0 0 0 0.94902 0 0 0 0 0 0 0 0 0.55 0"/>
<feBlend mode="normal" in2="BackgroundImageFix" result="effect1_dropShadow"/>
<feBlend mode="normal" in="SourceGraphic" in2="effect1_dropShadow" result="shape"/>
</filter>
</defs>
</svg>
